# xmcd CD database file
#
# Track frame offsets:
#	150
#	36548
#	70869
#	99537
#	139294
#	181842
#	219823
#	258019
#
# Disc length: 3891 seconds
#
# Revision: 0
# Processed by: cddbd v1.5.2PL0 Copyright (c) Steve Scherf et al.
# Submitted via: CDex 1.51
#
DISCID=6d0f3108
DTITLE=Pet Tracks - Puppy Tracks
DYEAR=1900
DGENRE=New Age
TTITLE0=Tender Moments
TTITLE1=Fearless Puppy
TTITLE2=Puppy Love
TTITLE3=Never Alone
TTITLE4=Fairy Tale Time
TTITLE5=Sweet Dreams
TTITLE6=Little Angel
TTITLE7=Joyful Peace
EXTD=
EXTT0=
EXTT1=
EXTT2=
EXTT3=
EXTT4=
EXTT5=
EXTT6=
EXTT7=
PLAYORDER=
